{
  "accessors": [
    {
      "bufferView": 2,
      "componentType": 5126,
      "count": 125,
      "max": [
        2.307676076889038,
        0.6852744817733765,
        18.82646942138672
      ],
      "min": [
        -2.424683094024658,
        -2.641550064086914,
        15.067119598388672
      ],
      "type": "VEC3"
    },
    {
      "bufferView": 2,
      "byteOffset": 1500,
      "componentType": 5126,
      "count": 125,
      "max": [
        0.9999918937683105,
        0.7437983155250549,
        0.7635279297828674
      ],
      "min": [
        -0.9982858300209045,
        -0.9518433213233948,
        -0.8468192219734192
      ],
      "type": "VEC3"
    },
    {
      "bufferView": 1,
      "componentType": 5126,
      "count": 125,
      "max": [
        1.0,
        1.0
      ],
      "min": [
        -1.0,
        0.0
      ],
      "type": "VEC2"
    },
    {
      "bufferView": 0,
      "componentType": 5125,
      "count": 420,
      "type": "SCALAR"
    },
    {
      "bufferView": 2,
      "byteOffset": 3000,
      "componentType": 5126,
      "count": 24,
      "max": [
        -1.4304200410842896,
        -1.692958950996399,
        16.575010299682617
      ],
      "min": [
        -2.505242109298706,
        -2.934839963912964,
        6.178607940673828
      ],
      "type": "VEC3"
    },
    {
      "bufferView": 2,
      "byteOffset": 3288,
      "componentType": 5126,
      "count": 24,
      "max": [
        0.9620903730392456,
        0.16566260159015656,
        0.997631311416626
      ],
      "min": [
        -0.9665024280548096,
        -0.16566260159015656,
        -0.9993712902069092
      ],
      "type": "VEC3"
    },
    {
      "bufferView": 1,
      "byteOffset": 1000,
      "componentType": 5126,
      "count": 24,
      "max": [
        1.0,
        1.0
      ],
      "min": [
        0.0,
        0.0
      ],
      "type": "VEC2"
    },
    {
      "bufferView": 0,
      "byteOffset": 1680,
      "componentType": 5125,
      "count": 36,
      "type": "SCALAR"
    },
    {
      "bufferView": 2,
      "byteOffset": 3576,
      "componentType": 5126,
      "count": 24,
      "max": [
        2.589988946914673,
        -1.5264060497283936,
        16.256990432739258
      ],
      "min": [
        1.3942949771881104,
        -3.5302929878234863,
        8.25186538696289
      ],
      "type": "VEC3"
    },
    {
      "bufferView": 2,
      "byteOffset": 3864,
      "componentType": 5126,
      "count": 24,
      "max": [
        0.9345600008964539,
        0.9117277264595032,
        0.9672635793685913
      ],
      "min": [
        -0.9345844984054565,
        -0.9117277264595032,
        -0.9849421977996826
      ],
      "type": "VEC3"
    },
    {
      "bufferView": 1,
      "byteOffset": 1192,
      "componentType": 5126,
      "count": 24,
      "max": [
        1.0,
        1.0
      ],
      "min": [
        0.0,
        0.0
      ],
      "type": "VEC2"
    },
    {
      "bufferView": 0,
      "byteOffset": 1824,
      "componentType": 5125,
      "count": 36,
      "type": "SCALAR"
    },
    {
      "bufferView": 2,
      "byteOffset": 4152,
      "componentType": 5126,
      "count": 1365,
      "max": [
        13.983989715576172,
        4.445871829986572,
        18.481809616088867
      ],
      "min": [
        -13.983989715576172,
        -2.658690929412842,
        0.02480899915099144
      ],
      "type": "VEC3"
    },
    {
      "bufferView": 2,
      "byteOffset": 20532,
      "componentType": 5126,
      "count": 1365,
      "max": [
        0.9999262094497681,
        0.9999918937683105,
        0.9993849992752075
      ],
      "min": [
        -0.9999262094497681,
        -0.9999909996986389,
        -1.0
      ],
      "type": "VEC3"
    },
    {
      "bufferView": 1,
      "byteOffset": 1384,
      "componentType": 5126,
      "count": 1365,
      "max": [
        0.9970700144767761,
        -0.004395000170916319
      ],
      "min": [
        0.0039059999398887157,
        -0.9975590109825134
      ],
      "type": "VEC2"
    },
    {
      "bufferView": 0,
      "byteOffset": 1968,
      "componentType": 5125,
      "count": 3066,
      "type": "SCALAR"
    },
    {
      "bufferView": 2,
      "byteOffset": 36912,
      "componentType": 5126,
      "count": 1057,
      "max": [
        1.9396779537200928,
        0.287891685962677,
        19.123489379882813
      ],
      "min": [
        -1.882912039756775,
        -4.599203109741211,
        15.846949577331543
      ],
      "type": "VEC3"
    },
    {
      "bufferView": 2,
      "byteOffset": 49596,
      "componentType": 5126,
      "count": 1057,
      "max": [
        0.9978742003440857,
        0.9643537998199463,
        0.9999765157699585
      ],
      "min": [
        -0.998890221118927,
        -0.9982748031616211,
        -0.999854326248169
      ],
      "type": "VEC3"
    },
    {
      "bufferView": 1,
      "byteOffset": 12304,
      "componentType": 5126,
      "count": 1057,
      "max": [
        0.9956049919128418,
        -0.005859000142663717
      ],
      "min": [
        0.008301000110805035,
        -0.9926760196685791
      ],
      "type": "VEC2"
    },
    {
      "bufferView": 0,
      "byteOffset": 14232,
      "componentType": 5125,
      "count": 2760,
      "type": "SCALAR"
    }
  ],
  "asset": {
    "extras": {
      "author": "Jamessmartguy (https://sketchfab.com/skybaca1985)",
      "license": "CC-BY-4.0 (http://creativecommons.org/licenses/by/4.0/)",
      "source": "https://sketchfab.com/3d-models/fixed-gru-despicable-me-55287f0c30fe40d487da8dadcc2e485b",
      "title": "Fixed Gru Despicable Me"
    },
    "generator": "Sketchfab-15.70.0",
    "version": "2.0"
  },
  "bufferViews": [
    {
      "buffer": 0,
      "byteLength": 25272,
      "name": "floatBufferViews",
      "target": 34963
    },
    {
      "buffer": 0,
      "byteLength": 20760,
      "byteOffset": 25272,
      "byteStride": 8,
      "name": "floatBufferViews",
      "target": 34962
    },
    {
      "buffer": 0,
      "byteLength": 62280,
      "byteOffset": 46032,
      "byteStride": 12,
      "name": "floatBufferViews",
      "target": 34962
    }
  ],
  "buffers": [
    {
      "byteLength": 108312,
      "uri": "scene.bin"
    }
  ],
  "images": [
    {
      "uri": "textures/Material_4_baseColor.jpeg"
    },
    {
      "uri": "textures/Material_5_baseColor.jpeg"
    },
    {
      "uri": "textures/Material_7_baseColor.jpeg"
    },
    {
      "uri": "textures/Material_9_baseColor.jpeg"
    }
  ],
  "materials": [
    {
      "doubleSided": true,
      "name": "Material_4",
      "pbrMetallicRoughness": {
        "baseColorTexture": {
          "index": 0
        },
        "metallicFactor": 0.0,
        "roughnessFactor": 0.6
      }
    },
    {
      "doubleSided": true,
      "name": "Material_5",
      "pbrMetallicRoughness": {
        "baseColorTexture": {
          "index": 1
        },
        "metallicFactor": 0.0,
        "roughnessFactor": 0.6
      }
    },
    {
      "doubleSided": true,
      "name": "Material_6",
      "pbrMetallicRoughness": {
        "baseColorTexture": {
          "index": 1
        },
        "metallicFactor": 0.0,
        "roughnessFactor": 0.6
      }
    },
    {
      "doubleSided": true,
      "name": "Material_7",
      "pbrMetallicRoughness": {
        "baseColorTexture": {
          "index": 2
        },
        "metallicFactor": 0.0,
        "roughnessFactor": 0.6
      }
    },
    {
      "doubleSided": true,
      "name": "Material_9",
      "pbrMetallicRoughness": {
        "baseColorTexture": {
          "index": 3
        },
        "metallicFactor": 0.0,
        "roughnessFactor": 0.6
      }
    }
  ],
  "meshes": [
    {
      "name": "Object_0",
      "primitives": [
        {
          "attributes": {
            "NORMAL": 1,
            "POSITION": 0,
            "TEXCOORD_0": 2
          },
          "indices": 3,
          "material": 0,
          "mode": 4
        }
      ]
    },
    {
      "name": "Object_1",
      "primitives": [
        {
          "attributes": {
            "NORMAL": 5,
            "POSITION": 4,
            "TEXCOORD_0": 6
          },
          "indices": 7,
          "material": 1,
          "mode": 4
        }
      ]
    },
    {
      "name": "Object_2",
      "primitives": [
        {
          "attributes": {
            "NORMAL": 9,
            "POSITION": 8,
            "TEXCOORD_0": 10
          },
          "indices": 11,
          "material": 2,
          "mode": 4
        }
      ]
    },
    {
      "name": "Object_3",
      "primitives": [
        {
          "attributes": {
            "NORMAL": 13,
            "POSITION": 12,
            "TEXCOORD_0": 14
          },
          "indices": 15,
          "material": 3,
          "mode": 4
        }
      ]
    },
    {
      "name": "Object_4",
      "primitives": [
        {
          "attributes": {
            "NORMAL": 17,
            "POSITION": 16,
            "TEXCOORD_0": 18
          },
          "indices": 19,
          "material": 4,
          "mode": 4
        }
      ]
    }
  ],
  "nodes": [
    {
      "children": [
        1
      ],
      "matrix": [
        1.0,
        0.0,
        0.0,
        0.0,
        0.0,
        2.220446049250313e-16,
        -1.0,
        0.0,
        0.0,
        1.0,
        2.220446049250313e-16,
        0.0,
        0.0,
        0.0,
        0.0,
        1.0
      ],
      "name": "Sketchfab_model"
    },
    {
      "children": [
        2,
        3,
        4,
        5,
        6
      ],
      "name": "New Gru Model.obj.cleaner.materialmerger.gles"
    },
    {
      "mesh": 0,
      "name": "Object_2"
    },
    {
      "mesh": 1,
      "name": "Object_3"
    },
    {
      "mesh": 2,
      "name": "Object_4"
    },
    {
      "mesh": 3,
      "name": "Object_5"
    },
    {
      "mesh": 4,
      "name": "Object_6"
    }
  ],
  "samplers": [
    {
      "magFilter": 9729,
      "minFilter": 9987,
      "wrapS": 10497,
      "wrapT": 10497
    }
  ],
  "scene": 0,
  "scenes": [
    {
      "name": "Sketchfab_Scene",
      "nodes": [
        0
      ]
    }
  ],
  "textures": [
    {
      "sampler": 0,
      "source": 0
    },
    {
      "sampler": 0,
      "source": 1
    },
    {
      "sampler": 0,
      "source": 2
    },
    {
      "sampler": 0,
      "source": 3
    }
  ]
}
