{
  "accessors": [
    {
      "bufferView": 2,
      "componentType": 5126,
      "count": 23,
      "max": [
        0.7968658804893494,
        0.7785245180130005,
        0.4708307683467865
      ],
      "min": [
        -0.9984593391418457,
        -0.6304683089256287,
        -0.09146090596914291
      ],
      "type": "VEC3"
    },
    {
      "bufferView": 2,
      "byteOffset": 276,
      "componentType": 5126,
      "count": 23,
      "max": [
        0.6206769943237305,
        0.57248455286026,
        0.9949543476104736
      ],
      "min": [
        -0.4662649631500244,
        -0.5927634835243225,
        0.7446834444999695
      ],
      "type": "VEC3"
    },
    {
      "bufferView": 1,
      "componentType": 5126,
      "count": 23,
      "max": [
        0.8162016272544861,
        0.3825373649597168
      ],
      "min": [
        0.37170886993408203,
        0.02766609750688076
      ],
      "type": "VEC2"
    },
    {
      "bufferView": 0,
      "componentType": 5125,
      "count": 99,
      "type": "SCALAR"
    },
    {
      "bufferView": 2,
      "byteOffset": 552,
      "componentType": 5126,
      "count": 15,
      "max": [
        0.994235098361969,
        0.7732865214347839,
        0.0
      ],
      "min": [
        -0.6754338145256042,
        -0.5933811664581299,
        -0.282270610332489
      ],
      "type": "VEC3"
    },
    {
      "bufferView": 2,
      "byteOffset": 732,
      "componentType": 5126,
      "count": 15,
      "max": [
        0.3681231439113617,
        0.4889009892940521,
        0.9813289642333984
      ],
      "min": [
        0.006004778668284416,
        0.0502525195479393,
        0.8723187446594238
      ],
      "type": "VEC3"
    },
    {
      "bufferView": 1,
      "byteOffset": 184,
      "componentType": 5126,
      "count": 15,
      "max": [
        0.4133826196193695,
        0.6192197203636169
      ],
      "min": [
        0.0,
        0.26328951120376587
      ],
      "type": "VEC2"
    },
    {
      "bufferView": 0,
      "byteOffset": 396,
      "componentType": 5125,
      "count": 54,
      "type": "SCALAR"
    },
    {
      "bufferView": 2,
      "byteOffset": 912,
      "componentType": 5126,
      "count": 15,
      "max": [
        0.6363168954849243,
        0.5189003944396973,
        0.0
      ],
      "min": [
        -0.9431158900260925,
        -0.8825073838233948,
        -0.4434041380882263
      ],
      "type": "VEC3"
    },
    {
      "bufferView": 2,
      "byteOffset": 1092,
      "componentType": 5126,
      "count": 15,
      "max": [
        0.13585419952869415,
        0.0005346950492821634,
        0.9599764347076416
      ],
      "min": [
        -0.3845979571342468,
        -0.4388815760612488,
        0.8978755474090576
      ],
      "type": "VEC3"
    },
    {
      "bufferView": 1,
      "byteOffset": 304,
      "componentType": 5126,
      "count": 15,
      "max": [
        0.4017166793346405,
        0.35580211877822876
      ],
      "min": [
        0.014093305915594101,
        0.0038177657406777143
      ],
      "type": "VEC2"
    },
    {
      "bufferView": 0,
      "byteOffset": 612,
      "componentType": 5125,
      "count": 54,
      "type": "SCALAR"
    },
    {
      "bufferView": 2,
      "byteOffset": 1272,
      "componentType": 5126,
      "count": 17,
      "max": [
        0.1428695023059845,
        1.896333932876587,
        0.05880261957645416
      ],
      "min": [
        -0.8305420875549316,
        -0.10732065886259079,
        -0.05517341196537018
      ],
      "type": "VEC3"
    },
    {
      "bufferView": 2,
      "byteOffset": 1476,
      "componentType": 5126,
      "count": 17,
      "max": [
        0.3211129307746887,
        0.07676497101783752,
        0.9999615550041199
      ],
      "min": [
        -0.28704729676246643,
        -0.14611244201660156,
        0.9467074871063232
      ],
      "type": "VEC3"
    },
    {
      "bufferView": 1,
      "byteOffset": 424,
      "componentType": 5126,
      "count": 17,
      "max": [
        1.0029296875,
        0.49341386556625366
      ],
      "min": [
        0.7633938193321228,
        0.00048828125
      ],
      "type": "VEC2"
    },
    {
      "bufferView": 0,
      "byteOffset": 828,
      "componentType": 5125,
      "count": 57,
      "type": "SCALAR"
    },
    {
      "bufferView": 2,
      "byteOffset": 1680,
      "componentType": 5126,
      "count": 14,
      "max": [
        0.5908641219139099,
        0.7613086700439453,
        0.0
      ],
      "min": [
        -0.7613024711608887,
        -0.7196409702301025,
        -0.16789564490318298
      ],
      "type": "VEC3"
    },
    {
      "bufferView": 2,
      "byteOffset": 1848,
      "componentType": 5126,
      "count": 14,
      "max": [
        0.6267005205154419,
        0.1316128671169281,
        0.9979846477508545
      ],
      "min": [
        -0.11911402642726898,
        -0.27301648259162903,
        0.7789465188980103
      ],
      "type": "VEC3"
    },
    {
      "bufferView": 1,
      "byteOffset": 560,
      "componentType": 5126,
      "count": 14,
      "max": [
        0.8571667075157166,
        0.8023613691329956
      ],
      "min": [
        0.5140917897224426,
        0.4131844937801361
      ],
      "type": "VEC2"
    },
    {
      "bufferView": 0,
      "byteOffset": 1056,
      "componentType": 5125,
      "count": 48,
      "type": "SCALAR"
    },
    {
      "bufferView": 2,
      "byteOffset": 2016,
      "componentType": 5126,
      "count": 29,
      "max": [
        0.6982001066207886,
        0.6995693445205688,
        0.31116223335266113
      ],
      "min": [
        -0.7694652676582336,
        -0.758625328540802,
        -0.057495731860399246
      ],
      "type": "VEC3"
    },
    {
      "bufferView": 2,
      "byteOffset": 2364,
      "componentType": 5126,
      "count": 29,
      "max": [
        0.47055691480636597,
        0.39384397864341736,
        0.9978302121162415
      ],
      "min": [
        -0.36265522241592407,
        -0.4136729836463928,
        0.8781707882881165
      ],
      "type": "VEC3"
    },
    {
      "bufferView": 1,
      "byteOffset": 672,
      "componentType": 5126,
      "count": 29,
      "max": [
        0.7478368282318115,
        0.9976145625114441
      ],
      "min": [
        0.3844669759273529,
        0.6161907911300659
      ],
      "type": "VEC2"
    },
    {
      "bufferView": 0,
      "byteOffset": 1248,
      "componentType": 5125,
      "count": 126,
      "type": "SCALAR"
    },
    {
      "bufferView": 2,
      "byteOffset": 2712,
      "componentType": 5126,
      "count": 14,
      "max": [
        0.06629476696252823,
        1.451894760131836,
        0.018181387335062027
      ],
      "min": [
        -1.4297807216644287,
        0.0,
        -0.2356739640235901
      ],
      "type": "VEC3"
    },
    {
      "bufferView": 2,
      "byteOffset": 2880,
      "componentType": 5126,
      "count": 14,
      "max": [
        0.3988094925880432,
        0.5578755140304565,
        0.9848305583000183
      ],
      "min": [
        0.024355147033929825,
        0.13459403812885284,
        0.7883147597312927
      ],
      "type": "VEC3"
    },
    {
      "bufferView": 1,
      "byteOffset": 904,
      "componentType": 5126,
      "count": 14,
      "max": [
        0.386320024728775,
        0.9921875
      ],
      "min": [
        -0.0016618415247648954,
        0.6201629042625427
      ],
      "type": "VEC2"
    },
    {
      "bufferView": 0,
      "byteOffset": 1752,
      "componentType": 5125,
      "count": 51,
      "type": "SCALAR"
    }
  ],
  "asset": {
    "extras": {
      "author": "DJMaesen (https://sketchfab.com/bumstrum)",
      "license": "CC-BY-4.0 (http://creativecommons.org/licenses/by/4.0/)",
      "source": "https://sketchfab.com/3d-models/cobwebs-941c92fcf27b44caafbf6d690ba9593f",
      "title": "Cobwebs"
    },
    "generator": "Sketchfab-13.23.0",
    "version": "2.0"
  },
  "bufferViews": [
    {
      "buffer": 0,
      "byteLength": 1956,
      "name": "floatBufferViews",
      "target": 34963
    },
    {
      "buffer": 0,
      "byteLength": 1016,
      "byteOffset": 1956,
      "byteStride": 8,
      "name": "floatBufferViews",
      "target": 34962
    },
    {
      "buffer": 0,
      "byteLength": 3048,
      "byteOffset": 2972,
      "byteStride": 12,
      "name": "floatBufferViews",
      "target": 34962
    }
  ],
  "buffers": [
    {
      "byteLength": 6020,
      "uri": "scene.bin"
    }
  ],
  "images": [
    {
      "uri": "textures/cobwebs_baseColor.png"
    }
  ],
  "materials": [
    {
      "alphaMode": "BLEND",
      "doubleSided": true,
      "emissiveFactor": [
        0.08085035440204487,
        0.0792430749541946,
        0.0792430749541946
      ],
      "name": "cobwebs",
      "pbrMetallicRoughness": {
        "baseColorTexture": {
          "index": 0
        },
        "metallicFactor": 0.0,
        "roughnessFactor": 0.6053321305360169
      }
    }
  ],
  "meshes": [
    {
      "name": "cobweb.001_cobwebs_0",
      "primitives": [
        {
          "attributes": {
            "NORMAL": 1,
            "POSITION": 0,
            "TEXCOORD_0": 2
          },
          "indices": 3,
          "material": 0,
          "mode": 4
        }
      ]
    },
    {
      "name": "cobweb.002_cobwebs_0",
      "primitives": [
        {
          "attributes": {
            "NORMAL": 5,
            "POSITION": 4,
            "TEXCOORD_0": 6
          },
          "indices": 7,
          "material": 0,
          "mode": 4
        }
      ]
    },
    {
      "name": "cobweb.003_cobwebs_0",
      "primitives": [
        {
          "attributes": {
            "NORMAL": 9,
            "POSITION": 8,
            "TEXCOORD_0": 10
          },
          "indices": 11,
          "material": 0,
          "mode": 4
        }
      ]
    },
    {
      "name": "cobweb.004_cobwebs_0",
      "primitives": [
        {
          "attributes": {
            "NORMAL": 13,
            "POSITION": 12,
            "TEXCOORD_0": 14
          },
          "indices": 15,
          "material": 0,
          "mode": 4
        }
      ]
    },
    {
      "name": "cobweb.005_cobwebs_0",
      "primitives": [
        {
          "attributes": {
            "NORMAL": 17,
            "POSITION": 16,
            "TEXCOORD_0": 18
          },
          "indices": 19,
          "material": 0,
          "mode": 4
        }
      ]
    },
    {
      "name": "cobweb.006_cobwebs_0",
      "primitives": [
        {
          "attributes": {
            "NORMAL": 21,
            "POSITION": 20,
            "TEXCOORD_0": 22
          },
          "indices": 23,
          "material": 0,
          "mode": 4
        }
      ]
    },
    {
      "name": "cobweb.007_cobwebs_0",
      "primitives": [
        {
          "attributes": {
            "NORMAL": 25,
            "POSITION": 24,
            "TEXCOORD_0": 26
          },
          "indices": 27,
          "material": 0,
          "mode": 4
        }
      ]
    }
  ],
  "nodes": [
    {
      "children": [
        1
      ],
      "matrix": [
        1.0,
        0.0,
        0.0,
        0.0,
        0.0,
        2.220446049250313e-16,
        -1.0,
        0.0,
        0.0,
        1.0,
        2.220446049250313e-16,
        0.0,
        0.0,
        0.0,
        0.0,
        1.0
      ],
      "name": "Sketchfab_model"
    },
    {
      "children": [
        2
      ],
      "matrix": [
        0.009999999776482582,
        0.0,
        0.0,
        0.0,
        0.0,
        0.0,
        0.009999999776482582,
        0.0,
        0.0,
        -0.009999999776482582,
        0.0,
        0.0,
        0.0,
        0.0,
        0.0,
        1.0
      ],
      "name": "a4705601e6e04399a2a92c7cbda14e95.fbx"
    },
    {
      "children": [
        3,
        5,
        7,
        9,
        11,
        13,
        15
      ],
      "name": "RootNode"
    },
    {
      "children": [
        4
      ],
      "matrix": [
        100.0,
        0.0,
        0.0,
        0.0,
        0.0,
        -4.371139006309477e-06,
        -99.9999999999999,
        0.0,
        0.0,
        99.9999999999999,
        -4.371139006309477e-06,
        0.0,
        45.88660430908203,
        2.750208854675293,
        110.810791015625,
        1.0
      ],
      "name": "cobweb.001"
    },
    {
      "mesh": 0,
      "name": "cobweb.001_cobwebs_0"
    },
    {
      "children": [
        6
      ],
      "matrix": [
        100.0,
        0.0,
        0.0,
        0.0,
        -0.0,
        -4.371139006309477e-06,
        -99.9999999999999,
        0.0,
        0.0,
        99.9999999999999,
        -4.371139006309477e-06,
        0.0,
        -136.55059814453125,
        11.964401245117188,
        16.31390380859375,
        1.0
      ],
      "name": "cobweb.002"
    },
    {
      "mesh": 1,
      "name": "cobweb.002_cobwebs_0"
    },
    {
      "children": [
        8
      ],
      "matrix": [
        100.0,
        0.0,
        0.0,
        0.0,
        -0.0,
        -4.371139006309477e-06,
        -99.9999999999999,
        0.0,
        0.0,
        99.9999999999999,
        -4.371139006309477e-06,
        0.0,
        -105.47074127197266,
        18.126419067382813,
        95.07567596435547,
        1.0
      ],
      "name": "cobweb.003"
    },
    {
      "mesh": 2,
      "name": "cobweb.003_cobwebs_0"
    },
    {
      "children": [
        10
      ],
      "matrix": [
        100.0,
        0.0,
        0.0,
        0.0,
        0.0,
        -4.371139006309477e-06,
        -99.9999999999999,
        0.0,
        0.0,
        99.9999999999999,
        -4.371139006309477e-06,
        0.0,
        185.52310180664063,
        -0.7744077444076538,
        174.11001586914063,
        1.0
      ],
      "name": "cobweb.004"
    },
    {
      "mesh": 3,
      "name": "cobweb.004_cobwebs_0"
    },
    {
      "children": [
        12
      ],
      "matrix": [
        100.0,
        0.0,
        0.0,
        0.0,
        0.0,
        -4.371139006309477e-06,
        -99.9999999999999,
        0.0,
        0.0,
        99.9999999999999,
        -4.371139006309477e-06,
        0.0,
        81.25772094726563,
        3.9697930812835693,
        -56.04804611206055,
        1.0
      ],
      "name": "cobweb.005"
    },
    {
      "mesh": 4,
      "name": "cobweb.005_cobwebs_0"
    },
    {
      "children": [
        14
      ],
      "matrix": [
        100.0,
        0.0,
        0.0,
        0.0,
        0.0,
        -4.371139006309477e-06,
        -99.9999999999999,
        0.0,
        0.0,
        99.9999999999999,
        -4.371139006309477e-06,
        0.0,
        28.140302658081055,
        -0.5526993274688721,
        -141.29689025878906,
        1.0
      ],
      "name": "cobweb.006"
    },
    {
      "mesh": 5,
      "name": "cobweb.006_cobwebs_0"
    },
    {
      "children": [
        16
      ],
      "matrix": [
        100.0,
        0.0,
        0.0,
        0.0,
        -0.0,
        -4.371139006309477e-06,
        -99.9999999999999,
        0.0,
        0.0,
        99.9999999999999,
        -4.371139006309477e-06,
        0.0,
        -60.801029205322266,
        3.807644844055176,
        -67.01142883300781,
        1.0
      ],
      "name": "cobweb.007"
    },
    {
      "mesh": 6,
      "name": "cobweb.007_cobwebs_0"
    }
  ],
  "samplers": [
    {
      "magFilter": 9729,
      "minFilter": 9987,
      "wrapS": 10497,
      "wrapT": 10497
    }
  ],
  "scene": 0,
  "scenes": [
    {
      "name": "Sketchfab_Scene",
      "nodes": [
        0
      ]
    }
  ],
  "textures": [
    {
      "sampler": 0,
      "source": 0
    }
  ]
}
